<svg xmlns="http://www.w3.org/2000/svg" width="31.708" height="31.707" viewBox="0 0 31.708 31.707">
  <g id="protected" transform="translate(0 0)">
    <path id="Path_236" data-name="Path 236" d="M20.606,27.854a.654.654,0,0,1-.264-.055C20.083,27.686,14,24.966,14,19.408V14.736a.662.662,0,0,1,.443-.624l5.945-2.076a.666.666,0,0,1,.436,0l5.945,2.076a.662.662,0,0,1,.443.624v4.672c0,5.559-6.083,8.278-6.342,8.391a.654.654,0,0,1-.264.055ZM15.321,15.205v4.2c0,4.1,4.179,6.492,5.283,7.052,1.1-.561,5.286-2.962,5.286-7.052v-4.2l-5.285-1.844Z" transform="translate(4.496 3.854)" fill="#404040"/>
    <path id="Path_237" data-name="Path 237" d="M19.277,21.041h-.036a.657.657,0,0,1-.486-.255l-2.163-2.794a.661.661,0,0,1,1.045-.81l1.7,2.192,3.253-3.364a.661.661,0,0,1,.95.918l-3.782,3.912a.665.665,0,0,1-.476.2Z" transform="translate(5.284 5.077)" fill="#404040"/>
    <path id="Path_238" data-name="Path 238" d="M22.71,13.007a.661.661,0,0,1-.661-.661V6.479l-11.588,5.8A.66.66,0,1,1,9.871,11.1L22.414,4.82a.662.662,0,0,1,.957.591v6.936a.661.661,0,0,1-.661.661Z" transform="translate(3.053 1.525)" fill="#404040"/>
    <path id="Path_239" data-name="Path 239" d="M13.2,24.9a.652.652,0,0,1-.308-.077L.353,18.215A.659.659,0,0,1,0,17.631V5.411A.66.66,0,0,1,.955,4.82L13.5,11.1a.662.662,0,0,1,.365.591V24.237a.664.664,0,0,1-.318.565A.654.654,0,0,1,13.2,24.9ZM1.321,17.232l11.222,5.909V12.094L1.321,6.479Z" transform="translate(0 1.525)" fill="#404040"/>
    <path id="Path_240" data-name="Path 240" d="M25.762,7.6a.666.666,0,0,1-.3-.07L13.2,1.4.956,7.526A.661.661,0,0,1,.365,6.345L12.908.07a.663.663,0,0,1,.591,0L26.057,6.345A.66.66,0,0,1,25.762,7.6Z" transform="translate(0)" fill="#404040"/>
    <path id="Path_241" data-name="Path 241" d="M5.2,14.779a.661.661,0,0,1-.661-.661V9.207a.662.662,0,0,1,.365-.591L17.451,2.341a.661.661,0,0,1,.591,1.182L5.864,9.616v4.5a.66.66,0,0,1-.661.659Z" transform="translate(1.459 0.729)" fill="#404040"/>
    <path id="Path_242" data-name="Path 242" d="M10.154,20.663a.661.661,0,0,1-.309-1.245l2.65-1.406a.661.661,0,0,1,.62,1.168l-2.65,1.406A.678.678,0,0,1,10.154,20.663Z" transform="translate(3.049 5.76)" fill="#404040"/>
  </g>
</svg>
