<svg xmlns="http://www.w3.org/2000/svg" width="30.708" height="34.65" viewBox="0 0 30.708 34.65">
  <g id="return_2_" data-name="return (2)" transform="translate(-8.979 -6.021)">
    <g id="Group_153" data-name="Group 153" transform="translate(8.979 9.973)">
      <path id="Path_259" data-name="Path 259" d="M24.313,42.647A15.325,15.325,0,0,1,9.63,22.849a1.333,1.333,0,0,1,2.552.773A12.7,12.7,0,0,0,32.565,36.969a12.7,12.7,0,0,0-10.813-22.1,12.827,12.827,0,0,0-6.442,3.5,1.333,1.333,0,0,1-1.9-1.875,15.365,15.365,0,1,1,10.9,26.151Z" transform="translate(-8.979 -11.949)" fill="#404040"/>
    </g>
    <g id="Group_154" data-name="Group 154" transform="translate(13.028 6.021)">
      <path id="Path_260" data-name="Path 260" d="M16.387,16.792A1.335,1.335,0,0,1,15.1,15.113l2.171-8.1a1.333,1.333,0,1,1,2.575.69l-2.171,8.1A1.334,1.334,0,0,1,16.387,16.792Z" transform="translate(-15.052 -6.021)" fill="#404040"/>
    </g>
    <g id="Group_155" data-name="Group 155" transform="translate(13.028 14.124)">
      <path id="Path_261" data-name="Path 261" d="M24.49,23.015a1.317,1.317,0,0,1-.346-.046l-8.1-2.172a1.333,1.333,0,0,1,.69-2.575l8.1,2.172a1.333,1.333,0,0,1-.344,2.621Z" transform="translate(-15.052 -18.176)" fill="#404040"/>
    </g>
  </g>
</svg>
