<svg xmlns="http://www.w3.org/2000/svg" width="48" height="56" viewBox="0 0 48 56">
  <g id="Group_5185" data-name="Group 5185" transform="translate(-1374 -432)">
    <text id="Paylaş" transform="translate(1398 483)" font-size="14" font-family="Poppins-Medium, Poppins" font-weight="500"><tspan x="-23.317" y="0">Paylaş</tspan></text>
    <g id="share" transform="translate(1386.917 432)">
      <path id="Path_567" data-name="Path 567" d="M27.4,12.26H24.5a1.063,1.063,0,0,0,0,2.127h2.9a1.065,1.065,0,0,1,1.063,1.063V29.355A1.065,1.065,0,0,1,27.4,30.419H11.416a1.065,1.065,0,0,1-1.063-1.063V15.45a1.065,1.065,0,0,1,1.063-1.063h2.9a1.063,1.063,0,0,0,0-2.127h-2.9a3.194,3.194,0,0,0-3.19,3.19V29.355a3.194,3.194,0,0,0,3.19,3.19H27.4a3.194,3.194,0,0,0,3.19-3.19V15.45A3.194,3.194,0,0,0,27.4,12.26ZM15.443,10.113,18.38,7.176v14a1.063,1.063,0,1,0,2.127,0v-14l2.937,2.937a1.063,1.063,0,0,0,1.5-1.5L20.2,3.857a1.064,1.064,0,0,0-1.5,0L13.94,8.61a1.063,1.063,0,0,0,1.5,1.5Z" transform="translate(-8.226 -3.545)" fill="#1a1818"/>
    </g>
  </g>
</svg>
