<svg id="_08.whatsapp" data-name="08.whatsapp" xmlns="http://www.w3.org/2000/svg" width="48.607" height="48.607" viewBox="0 0 48.607 48.607">
  <path id="Path_565" data-name="Path 565" d="M62.667,49.056l-.048-.048A9.437,9.437,0,0,0,47.541,59.955l.416.819L47.18,64.54v.048l3.732-.886.851.422a9.427,9.427,0,0,0,10.9-15.068ZM62.29,59.609a3.941,3.941,0,0,1-2.088,1.82c-1.6.387-4.032,0-7.08-2.817l-.038-.035c-2.651-2.475-3.355-4.538-3.2-6.172A3.913,3.913,0,0,1,51.4,50.089a.867.867,0,0,1,1.359.32l.982,2.238a.863.863,0,0,1-.106.883l-.5.64a.847.847,0,0,0-.067.943,9.274,9.274,0,0,0,1.685,1.871,9.782,9.782,0,0,0,2.334,1.672.844.844,0,0,0,.924-.2l.572-.579a.87.87,0,0,1,.879-.269l2.334.672a.873.873,0,0,1,.492,1.3Z" transform="translate(-31.648 -31.468)" fill="#00d264"/>
  <path id="Path_566" data-name="Path 566" d="M24.3,0a24.3,24.3,0,1,0,24.3,24.3A24.3,24.3,0,0,0,24.3,0ZM36.35,24.588A12.059,12.059,0,0,1,18.934,35l-6.076,1.445a.47.47,0,0,1-.492-.192.46.46,0,0,1-.074-.361l1.279-6.21A12.056,12.056,0,1,1,36.36,24.588Z" fill="#00d264"/>
</svg>
