<svg xmlns="http://www.w3.org/2000/svg" width="18.858" height="18.847" viewBox="0 0 18.858 18.847">
  <path id="Path_565" data-name="Path 565" d="M62.667,49.056l-.048-.048A9.437,9.437,0,0,0,47.541,59.955l.416.819L47.18,64.54v.048l3.732-.886.851.422a9.427,9.427,0,0,0,10.9-15.068ZM62.29,59.609a3.941,3.941,0,0,1-2.088,1.82c-1.6.387-4.032,0-7.08-2.817l-.038-.035c-2.651-2.475-3.355-4.538-3.2-6.172A3.913,3.913,0,0,1,51.4,50.089a.867.867,0,0,1,1.359.32l.982,2.238a.863.863,0,0,1-.106.883l-.5.64a.847.847,0,0,0-.067.943,9.274,9.274,0,0,0,1.685,1.871,9.782,9.782,0,0,0,2.334,1.672.844.844,0,0,0,.924-.2l.572-.579a.87.87,0,0,1,.879-.269l2.334.672a.873.873,0,0,1,.492,1.3Z" transform="translate(-46.526 -46.262)" fill="#00d264"/>
</svg>
