<svg xmlns="http://www.w3.org/2000/svg" width="21" height="21" viewBox="0 0 21 21">
  <g id="Group_2072" data-name="Group 2072" transform="translate(-448 -268)">
    <circle id="Ellipse_47" data-name="Ellipse 47" cx="10.5" cy="10.5" r="10.5" transform="translate(448 268)" fill="#cd1717"/>
    <g id="noun-caution-176198" transform="translate(453.854 272.652)">
      <path id="Path_76470" data-name="Path 76470" d="M85.24,15.745H75.479a.259.259,0,0,1-.2-.108.2.2,0,0,1,0-.217l4.881-9.762a.224.224,0,0,1,.39,0l4.881,9.762a.253.253,0,0,1,0,.217A.259.259,0,0,1,85.24,15.745Zm-9.414-.434h9.068L80.36,6.244Z" transform="translate(-75.251 -5.544)" fill="#fff"/>
      <path id="Path_76471" data-name="Path 76471" d="M330.17,232.462a.369.369,0,0,1,.738,0,.369.369,0,0,1-.738,0Zm.152-.868-.087-2.928h.586l-.065,2.928Z" transform="translate(-325.43 -224.517)" fill="#fff"/>
    </g>
  </g>
</svg>
