<svg id="Layer_14" data-name="Layer 14" xmlns="http://www.w3.org/2000/svg" width="18.285" height="18.285" viewBox="0 0 18.285 18.285">
  <path id="Path_35" data-name="Path 35" d="M11.854,10.707A4.354,4.354,0,1,0,7.5,6.354,4.354,4.354,0,0,0,11.854,10.707Zm0-7.836A3.483,3.483,0,1,1,8.371,6.354a3.483,3.483,0,0,1,3.483-3.483Z" transform="translate(-2.711 -2)" fill="#fff"/>
  <path id="Path_36" data-name="Path 36" d="M12.065,13H10.219A8.246,8.246,0,0,0,2,21.272a.435.435,0,0,0,.435.435H19.849a.479.479,0,0,0,.435-.488A8.237,8.237,0,0,0,12.065,13ZM2.871,20.836a7.366,7.366,0,0,1,7.34-6.966h1.846a7.366,7.366,0,0,1,7.357,6.966Z" transform="translate(-2 -3.422)" fill="#fff"/>
</svg>
