<svg xmlns="http://www.w3.org/2000/svg" width="17.455" height="20.538" viewBox="0 0 17.455 20.538">
  <g id="noun-note-5270556" transform="translate(-87.853 -14)">
    <path id="Path_1" data-name="Path 1" d="M138.816,14H126.493a2.569,2.569,0,0,0-2.566,2.566v15.4a2.569,2.569,0,0,0,2.566,2.568h12.323a2.57,2.57,0,0,0,2.566-2.568v-15.4A2.569,2.569,0,0,0,138.816,14Zm1.541,17.969a1.543,1.543,0,0,1-1.541,1.541H126.493a1.544,1.544,0,0,1-1.541-1.541v-15.4a1.543,1.543,0,0,1,1.541-1.539h12.323a1.543,1.543,0,0,1,1.541,1.539Z" transform="translate(-36.074)" fill="#fff"/>
    <path id="Path_2" data-name="Path 2" d="M230.812,121.425h4.107a.513.513,0,0,0,0-1.027h-4.107a.513.513,0,0,0,0,1.027Z" transform="translate(-138.339 -102.291)" fill="#fff"/>
    <path id="Path_3" data-name="Path 3" d="M238,253.4h-7.188a.513.513,0,1,0,0,1.027H238a.513.513,0,1,0,0-1.027Z" transform="translate(-138.339 -230.158)" fill="#fff"/>
    <path id="Path_4" data-name="Path 4" d="M238,386.4h-7.188a.513.513,0,1,0,0,1.027H238a.513.513,0,1,0,0-1.027Z" transform="translate(-138.339 -358.024)" fill="#fff"/>
  </g>
</svg>
