<svg xmlns="http://www.w3.org/2000/svg" width="19.153" height="13.058" viewBox="0 0 19.153 13.058">
  <path id="delivery-truck_2_" data-name="delivery-truck (2)" d="M15.659,628.057a1.768,1.768,0,0,0-1.248.515,1.733,1.733,0,0,0,0,2.48,1.776,1.776,0,0,0,1.248.515,1.755,1.755,0,0,0,0-3.51Zm0,2.73a.975.975,0,1,1,0-1.95.975.975,0,0,1,0,1.95Zm.452-8.576a.379.379,0,0,0-.261-.1h-2a.391.391,0,0,0-.39.39v3.2a.391.391,0,0,0,.39.39h3.175a.391.391,0,0,0,.39-.39v-2.141a.39.39,0,0,0-.129-.289Zm.523,3.1H14.239v-2.422H15.7l.936.842Zm-10.5,2.75a1.768,1.768,0,0,0-1.248.515,1.733,1.733,0,0,0,0,2.48,1.776,1.776,0,0,0,1.248.515,1.755,1.755,0,0,0,0-3.51Zm0,2.73a.975.975,0,1,1,0-1.95.975.975,0,0,1,0,1.95Zm-2.6-2.25H2.75V627.5a.39.39,0,0,0-.78,0v1.427a.391.391,0,0,0,.39.39H3.533a.39.39,0,0,0,0-.78Zm1.977-2.125a.391.391,0,0,0-.39-.39H.39a.39.39,0,0,0,0,.78H5.121A.389.389,0,0,0,5.511,626.412ZM1.182,625l4.731.027a.394.394,0,0,0,.394-.386.386.386,0,0,0-.386-.394l-4.731-.027h0a.39.39,0,0,0,0,.78Zm.8-1.771H6.708a.39.39,0,1,0,0-.78H1.977a.39.39,0,1,0,0,.78Zm17.032-.526h0l-2.792-2.313a.384.384,0,0,0-.25-.09H12.683v-1.4a.391.391,0,0,0-.39-.39H2.36a.391.391,0,0,0-.39.39v2.855a.39.39,0,1,0,.78,0V619.29h9.157v9.247h-3.2a.39.39,0,0,0,0,.78h4.762a.39.39,0,0,0,0-.78h-.784v-7.453H15.83l2.543,2.106-.027,5.339H17.94a.39.39,0,0,0,0,.78h.792a.388.388,0,0,0,.39-.386l.031-5.913A.412.412,0,0,0,19.009,622.707Z" transform="translate(0 -618.51)" fill="#84c5d9"/>
</svg>
