<svg xmlns="http://www.w3.org/2000/svg" width="13.5" height="13.5" viewBox="0 0 13.5 13.5">
  <g id="wallet" transform="translate(0)">
    <g id="Group_166" data-name="Group 166" transform="translate(0 0)">
      <g id="Group_165" data-name="Group 165" transform="translate(0 0)">
        <path id="Path_353" data-name="Path 353" d="M12.889,6.807v-1.9a1.225,1.225,0,0,0-1.13-1.217L10,.614A1.214,1.214,0,0,0,8.332.165L2.291,3.682H1.23A1.228,1.228,0,0,0,0,4.909v7.364A1.228,1.228,0,0,0,1.23,13.5H11.662a1.228,1.228,0,0,0,1.227-1.227v-1.9a.919.919,0,0,0,.614-.864V7.671A.919.919,0,0,0,12.889,6.807ZM11.047,3.682H8.372l2.006-1.168Zm-.973-1.7-2.92,1.7H5.942L9.77,1.453ZM8.641.7A.593.593,0,0,1,9.1.634a.6.6,0,0,1,.369.285h0L4.722,3.682H3.511Zm3.635,11.577a.614.614,0,0,1-.614.614H1.23a.614.614,0,0,1-.614-.614V4.909A.614.614,0,0,1,1.23,4.3H11.662a.614.614,0,0,1,.614.614V6.75H10.435a1.841,1.841,0,0,0,0,3.682h1.841v1.841Zm.614-2.761a.307.307,0,0,1-.307.307H10.435a1.227,1.227,0,0,1,0-2.455h2.148a.307.307,0,0,1,.307.307Z" transform="translate(-0.003 0)" fill="#e11b3c"/>
        <path id="Path_354" data-name="Path 354" d="M341.951,277.341a.614.614,0,1,0,.614.614A.614.614,0,0,0,341.951,277.341Z" transform="translate(-331.519 -269.364)" fill="#e11b3c"/>
      </g>
    </g>
  </g>
</svg>
