<svg xmlns="http://www.w3.org/2000/svg" width="16.581" height="17.317" viewBox="0 0 16.581 17.317">
  <g id="noun-note-1269186" transform="translate(-73.853 -19.657)">
    <path id="Path_76504" data-name="Path 76504" d="M113.387,36.6V34.307h-.744v1.922H101.21V20.384h7.15v3.907a.372.372,0,0,0,.372.372h3.907v2.121h.744v-2.5a.372.372,0,0,0-.106-.259L109,19.763h0a.373.373,0,0,0-.225-.106h-7.936a.372.372,0,0,0-.372.372V36.6a.372.372,0,0,0,.372.372h12.178a.372.372,0,0,0,.372-.372Zm-4.279-15.692,3.016,3.014H109.1Z" transform="translate(-26.612)" fill="#fff"/>
    <path id="Path_76505" data-name="Path 76505" d="M366.262,234.194a.372.372,0,0,0-.525-.035l-5.18,4.536a.372.372,0,0,0-.119.2l-.415,1.963a.372.372,0,0,0,.372.448h.021l2.034-.115a.371.371,0,0,0,.223-.091l5.173-4.536a.372.372,0,0,0,.035-.525Zm-3.991,6.265-1.42.082.288-1.368,4.808-4.209,1.128,1.288Z" transform="translate(-277.538 -207.286)" fill="#fff"/>
  </g>
</svg>
